<svg width="93" height="34" viewBox="0 0 93 34" fill="none" xmlns="http://www.w3.org/2000/svg">
<g id="Frame" clip-path="url(#clip0_1_6)">
<g id="g10">
<g id="g12">
<path id="path14" d="M18.3795 0.00087738L15.6547 12.4045L12.6151 0.00087738H9.39839L6.3589 12.4045L3.63396 0.00087738H0.829746L4.67997 15.2127H7.9513L11.0067 2.80894L14.0623 15.2127H17.3335L21.1836 0.00087738H18.3795Z" fill="black"/>
<path id="path16" d="M27.4985 9.20685H24.8317L27.4985 1.95054L30.1654 9.20685H27.4985ZM29.1141 0.00087738H25.8828L19.9309 15.2127H22.7292L24.1066 11.3882H27.4985H30.8904L32.2676 15.2127H35.0661L29.1141 0.00087738Z" fill="black"/>
<path id="path18" d="M36.8864 0.00087738V15.2127H48.5234V12.7563H39.4939V0.00087738H36.8864Z" fill="black"/>
<path id="path20" d="M56.5138 12.7178H53.481V2.45804L56.5138 2.45161C61.16 2.45161 61.746 5.70845 61.746 7.60642C61.746 9.50417 61.16 12.7178 56.5138 12.7178ZM56.5138 0.00087738H50.8942V15.2127H56.5138C61.081 15.2127 64.3395 12.0844 64.3395 7.60674C64.3395 3.12916 61.081 0.00087738 56.5138 0.00087738Z" fill="black"/>
<path id="path22" d="M77.8423 2.45687V0.00087738H66.2362V15.2127H77.8423V12.7566H68.8143V8.77771H76.7901V7.60674V6.43566H68.8143V2.45687H77.8423Z" fill="black"/>
<path id="path24" d="M82.671 0.00087738H80.1011V15.2127H82.671V2.57988L90.2597 15.2127H92.8293V0.00087738H90.2215V10.5065L83.9059 0.00087738H82.671Z" fill="black"/>
</g>
</g>
</g>
<defs>
<clipPath id="clip0_1_6">
<rect width="92" height="34" fill="white" transform="translate(0.829861)"/>
</clipPath>
</defs>
</svg>
